<?xml version="1.0"?>
<svg xmlns="http://www.w3.org/2000/svg" viewBox="0 0 64 64">
    <path d="M 13.359375 0 C 12.476375 0 11.641312 0.38654688 11.070312 1.0605469 C 10.499313 1.7345469 10.254391 2.6221406 10.400391 3.4941406 L 13.820312 24 L 9.7714844 24 C 7.6984844 24 5.8178437 25.304141 5.0898438 27.244141 L 0.69921875 38.951172 C 0.23521875 40.190172 -1.4802974e-16 41.4895 0 42.8125 L 0 53 C 0 55.757 2.243 58 5 58 L 59 58 C 61.757 58 64 55.757 64 53 L 64 42.8125 C 64 41.4895 63.764781 40.189219 63.300781 38.949219 L 58.910156 27.244141 C 58.182156 25.303141 56.301516 24 54.228516 24 L 50.179688 24 L 53.597656 3.4921875 C 53.743656 2.6201875 53.498734 1.7345469 52.927734 1.0605469 C 52.356734 0.38754688 51.521672 0 50.638672 0 L 50.560547 0 C 49.181547 0 47.985391 0.93448438 47.650391 2.2714844 L 42.21875 24 L 21.78125 24 L 16.349609 2.2714844 C 16.014609 0.93548438 14.8165 0 13.4375 0 L 13.359375 0 z M 13.361328 2 L 13.439453 2 C 13.899453 2 14.297203 2.3128125 14.408203 2.7578125 L 19.71875 24 L 15.847656 24 L 12.375 3.1640625 C 12.326 2.8690625 12.405609 2.5815156 12.599609 2.3535156 C 12.791609 2.1265156 13.062328 2 13.361328 2 z M 50.5625 2 L 50.640625 2 C 50.939625 2 51.209344 2.1255156 51.402344 2.3535156 C 51.595344 2.5815156 51.674953 2.8710156 51.626953 3.1660156 L 48.152344 24 L 44.28125 24 L 49.591797 2.7578125 C 49.703797 2.3118125 50.1025 2 50.5625 2 z M 9.7714844 26 L 15 26 L 21 26 L 43 26 L 49 26 L 54.228516 26 C 55.472516 26 56.600109 26.781312 57.037109 27.945312 L 57.037109 27.947266 L 61.427734 39.652344 C 61.470734 39.767344 61.501062 39.884 61.539062 40 L 2.4609375 40 C 2.4989375 39.885 2.5292656 39.767344 2.5722656 39.652344 L 6.9628906 27.945312 C 7.3998906 26.781313 8.5274844 26 9.7714844 26 z M 10 28 C 9.448 28 9 28.447 9 29 C 9 29.553 9.448 30 10 30 L 46 30 C 46.552 30 47 29.553 47 29 C 47 28.447 46.552 28 46 28 L 10 28 z M 50 28 C 49.448 28 49 28.447 49 29 C 49 29.553 49.448 30 50 30 L 54 30 C 54.552 30 55 29.553 55 29 C 55 28.447 54.552 28 54 28 L 50 28 z M 2.0371094 42 L 61.962891 42 C 61.987891 42.27 62 42.5405 62 42.8125 L 62 53 C 62 54.654 60.654 56 59 56 L 5 56 C 3.346 56 2 54.654 2 53 L 2 42.8125 C 2 42.5405 2.0121094 42.27 2.0371094 42 z M 47 46 C 45.346 46 44 47.346 44 49 C 44 50.654 45.346 52 47 52 C 48.654 52 50 50.654 50 49 C 50 47.346 48.654 46 47 46 z M 55 46 C 53.346 46 52 47.346 52 49 C 52 50.654 53.346 52 55 52 C 56.654 52 58 50.654 58 49 C 58 47.346 56.654 46 55 46 z M 7 47 C 6.448 47 6 47.447 6 48 L 6 50 C 6 50.553 6.448 51 7 51 C 7.552 51 8 50.553 8 50 L 8 48 C 8 47.447 7.552 47 7 47 z M 12 47 C 11.448 47 11 47.447 11 48 L 11 50 C 11 50.553 11.448 51 12 51 C 12.552 51 13 50.553 13 50 L 13 48 C 13 47.447 12.552 47 12 47 z M 17 47 C 16.448 47 16 47.447 16 48 L 16 50 C 16 50.553 16.448 51 17 51 C 17.552 51 18 50.553 18 50 L 18 48 C 18 47.447 17.552 47 17 47 z M 22 47 C 21.448 47 21 47.447 21 48 L 21 50 C 21 50.553 21.448 51 22 51 C 22.552 51 23 50.553 23 50 L 23 48 C 23 47.447 22.552 47 22 47 z M 27 47 C 26.448 47 26 47.447 26 48 L 26 50 C 26 50.553 26.448 51 27 51 C 27.552 51 28 50.553 28 50 L 28 48 C 28 47.447 27.552 47 27 47 z M 47 48 C 47.551 48 48 48.448 48 49 C 48 49.552 47.551 50 47 50 C 46.449 50 46 49.552 46 49 C 46 48.448 46.449 48 47 48 z M 55 48 C 55.551 48 56 48.448 56 49 C 56 49.552 55.551 50 55 50 C 54.449 50 54 49.552 54 49 C 54 48.448 54.449 48 55 48 z"/>
</svg>
